<?xml version="1.0" encoding="UTF-8"?>
<svg width="150px" height="35px" viewBox="0 0 150 35" version="1.1" xmlns="http://www.w3.org/2000/svg" xmlns:xlink="http://www.w3.org/1999/xlink">
    <!-- Generator: Sketch 52.6 (67491) - http://www.bohemiancoding.com/sketch -->
    <title>yp-logo</title>
    <desc>Created with Sketch.</desc>
    <g id="Email" stroke="none" stroke-width="1" fill="none" fill-rule="evenodd">
        <g id="yp-logo">
            <g id="Group-6">
                <path d="M102.541667,0 L108.800911,1.62037037 C109.061005,0.972376204 109.262689,0.588056181 109.625,0 L102.541667,0 Z M111.257536,0 C105.338132,9.47612511 113.9682,15.1000506 119.893475,17.5085344 C125.818811,19.9169873 131.227474,23.8387907 125.409785,24.9413753 C119.591974,26.0438981 114.009604,27.5462963 114.009604,27.5462963 L127.643697,27.5462963 C129.65564,27.5462963 131.285499,26.6454395 132.533216,24.8438136 L150,0.00389979048 L146.895509,0.00389979048 C145.068522,2.22434364 138.426913,11.529795 129.349752,12.7253254 C120.272591,13.9209435 108.219229,9.0117564 113.310201,0.0396727695 L111.257536,0.000953053157 L111.257536,0 Z M99,9.07407407 L108.916667,11.3425926 C108.916667,11.3425926 108.642338,10.7934044 108.424313,10.2532737 C108.189189,9.67084478 108.051891,9.07407407 108.051891,9.07407407 L99,9.07407407 Z M114.751593,30.1388889 C113.33674,30.1388889 111.876631,31.2270558 111.490297,32.5694581 C111.103958,33.9117619 111.937632,35 113.352485,35 C114.767338,35 116.227445,33.9117619 116.613906,32.5694581 C117.000179,31.2270558 116.166383,30.1388889 114.751593,30.1388889 Z M126.085033,30.1388889 C124.670162,30.1388889 123.209971,31.2270558 122.823631,32.5694581 C122.437288,33.9117619 123.270975,35 124.685846,35 C126.100718,34.9999452 127.560844,33.9117619 127.947185,32.5694581 C128.333589,31.2270558 127.49978,30.1388889 126.085033,30.1388889 Z" id="path5406-copy" fill="#3668D3" fill-rule="nonzero"></path>
                <path d="M17.1544386,12.0696881 L3.91214345,33 L0,33 L5.88373956,23.7290448 L0.652023909,12.0696881 L4.3157773,12.0696881 L7.93295756,20.5774854 L13.2267707,12.0696881 L17.1544386,12.0696881 Z M22.1916429,5.73830409 C22.1916429,6.19054807 22.0105269,6.58154481 21.6482896,6.91130604 C21.2860523,7.24106728 20.851374,7.40594542 20.3442418,7.40594542 C19.8371096,7.40594542 19.3972566,7.23635647 19.0246696,6.89717349 C18.6624323,6.53914701 18.4813163,6.12930705 18.4813163,5.66764133 C18.4813163,5.2059756 18.6572575,4.81497886 19.0091452,4.49463938 C19.3713825,4.16487814 19.8008861,4 20.2976687,4 C20.8048009,4 21.2446539,4.17429975 21.6172409,4.52290448 C22.0001774,4.86208747 22.1916429,5.26721662 22.1916429,5.73830409 Z M21.1204607,12.0696881 L19.3196328,25.3825536 L15.8887451,25.3825536 L17.689573,12.0696881 L21.1204607,12.0696881 Z M27.2288472,12.0696881 L27.0425546,13.4688109 C28.5225528,12.3193575 30.0801499,11.7446394 31.7153927,11.7446394 C33.6611245,11.7446394 35.2808185,12.3617547 36.5745232,13.5960039 C37.8682279,14.8302531 38.5150706,16.3895292 38.5150706,18.2738791 C38.5150706,20.3655075 37.7750826,22.1273483 36.2950844,23.5594542 C34.8254359,24.9821384 32.9987522,25.6934698 30.8149787,25.6934698 C29.6972178,25.6934698 28.7812886,25.5333024 28.0671636,25.212963 C27.3219897,24.8926235 26.5302543,24.3131946 25.6919337,23.4746589 L24.4034102,33 L20.9725225,33 L23.7979595,12.0696881 L27.2288472,12.0696881 Z M35.0841829,18.4010721 C35.0841829,17.2233534 34.7116015,16.2576386 33.9664276,15.5038986 C33.2212537,14.7407369 32.2691013,14.3591618 31.1099419,14.3591618 C29.7230904,14.3591618 28.5639484,14.8208206 27.632481,15.744152 C26.7010137,16.6674835 26.2352869,17.8027873 26.2352869,19.1500975 C26.2352869,20.3278162 26.6285673,21.2746878 27.4151397,21.9907407 C28.2017122,22.7256372 29.2159615,23.0930799 30.457918,23.0930799 C31.7619723,23.0930799 32.8590174,22.6408427 33.7490863,21.7363548 C34.6391551,20.8130233 35.0841829,19.7012736 35.0841829,18.4010721 Z M51.9820126,13.3557505 L51.54733,16.535575 C50.8435546,15.7158828 50.1708382,15.1270323 49.5291607,14.7690058 C48.8978328,14.4204011 48.1526701,14.2461014 47.2936502,14.2461014 C45.9895958,14.2461014 44.9184244,14.6842061 44.0801038,15.5604288 C43.2417831,16.4366516 42.8226291,17.5625337 42.8226291,18.9381092 C42.8226291,20.2288888 43.2159094,21.2605549 44.0024819,22.0331384 C44.799404,22.8151436 45.8291775,23.2061404 47.0918332,23.2061404 C48.3027408,23.2061404 49.5550282,22.7303491 50.8487329,21.7787524 L50.3985259,25.0716374 C49.0737723,25.5615684 47.8111355,25.8065302 46.6105775,25.8065302 C44.4682025,25.8065302 42.7243147,25.1705717 41.3788619,23.8986355 C40.0437586,22.6266993 39.376217,20.9779179 39.376217,18.9522417 C39.376217,16.8700351 40.095506,15.1317484 41.5341056,13.7373294 C42.9830549,12.3334888 44.7838648,11.6315789 46.9365895,11.6315789 C48.6960278,11.6315789 50.3778187,12.206297 51.9820126,13.3557505 Z M67.9949527,12.0696881 L66.1941247,25.3825536 L62.763237,25.3825536 L62.965054,23.9410331 C61.4954054,25.1093301 59.9740315,25.6934698 58.4008866,25.6934698 C56.4655044,25.6934698 54.8872083,25.0951977 53.6659511,23.8986355 C52.4446938,22.7020733 51.8340744,21.1522187 51.8340744,19.2490253 C51.8340744,17.0537577 52.5326644,15.2542305 53.9298655,13.8503899 C55.3477658,12.4465492 57.1641,11.7446394 59.3789225,11.7446394 C60.4242358,11.7446394 61.3142913,11.9000959 62.0491156,12.2110136 C62.7942895,12.5219314 63.5549765,13.058963 64.3311993,13.8221248 L64.564065,12.0696881 L67.9949527,12.0696881 Z M63.8188948,18.3445419 C63.8188948,17.1668232 63.4463134,16.21053 62.7011395,15.4756335 C61.9559656,14.7313153 60.9934637,14.3591618 59.8136051,14.3591618 C58.53025,14.3591618 57.4539038,14.8161098 56.5845343,15.7300195 C55.7151647,16.6533509 55.2804865,17.7839439 55.2804865,19.1218324 C55.2804865,20.2901293 55.6427183,21.2464225 56.367193,21.9907407 C57.0916676,22.735059 58.023121,23.1072125 59.1615811,23.1072125 C60.4242369,23.1072125 61.5161073,22.6408429 62.4372251,21.7080897 C63.3583428,20.756493 63.8188948,19.6353216 63.8188948,18.3445419 Z M74.1188635,12.0696881 L73.9636197,13.214425 C75.1227791,12.2157195 76.2922706,11.7163743 77.4721293,11.7163743 C78.5070931,11.7163743 79.448896,12.060263 80.2975663,12.7480507 L78.1086289,15.3201754 C77.477301,14.8302445 76.8459825,14.5852827 76.2146546,14.5852827 C75.7799699,14.5852827 75.397039,14.6630109 75.0658506,14.8184698 C74.7346622,14.9739287 74.4474641,15.2188905 74.2042476,15.5533626 C73.9610311,15.8878347 73.7592162,16.3188733 73.5987968,16.8464912 C73.4383774,17.3741092 73.3115963,18.0053569 73.2184495,18.7402534 L72.3180356,25.3825536 L68.8871479,25.3825536 L70.6879758,12.0696881 L74.1188635,12.0696881 Z M85.4449173,14.9668616 L84.0321988,25.3825536 L80.6013111,25.3825536 L82.0140295,14.9668616 L80.0734822,14.9668616 L80.4615917,12.0696881 L82.402139,12.0696881 L83.2404555,5.89376218 L86.6713432,5.89376218 L85.8330267,12.0696881 L89,12.0696881 L88.6118905,14.9668616 L85.4449173,14.9668616 Z" id="yipcart" fill="#212121"></path>
            </g>
        </g>
    </g>
</svg>