<?xml version="1.0" encoding="UTF-8"?>
<svg width="686px" height="646px" viewBox="0 0 686 646" version="1.1" xmlns="http://www.w3.org/2000/svg" xmlns:xlink="http://www.w3.org/1999/xlink">
    <!-- Generator: Sketch 52.6 (67491) - http://www.bohemiancoding.com/sketch -->
    <title>Group 5 Copy 2</title>
    <desc>Created with Sketch.</desc>
    <g id="Page-1" stroke="none" stroke-width="1" fill="none" fill-rule="evenodd">
        <g id="Group-5-Copy-2" transform="translate(4.000000, 0.000000)">
            <circle id="Oval" fill="#EEF6FF" fill-rule="nonzero" opacity="0.627511161" cx="361" cy="321" r="321"></circle>
            <g id="shop" transform="translate(269.000000, 398.000000)">
                <path d="M163.06224,0 L36.9377601,0 C32.5536523,0 29,3.65158476 29,8.1565109 L29,26 L171,26 L171,8.1565109 C171,3.65158476 167.446348,0 163.06224,0 Z" id="Path" fill="#1F79EE"></path>
                <path d="M162.974166,0 L149,0 L149,26 L171,26 L171,8.1565109 C171,3.65158476 167.406918,0 162.974166,0 Z" id="Path" fill-opacity="0.254585598" fill="#000000"></path>
                <path d="M11,28 L11,172.96049 C11,177.952721 15.0455772,182 20.0357091,182 L178.964291,182 C183.954423,182 188,177.952721 188,172.96049 L188,28 L11,28 Z" id="Path" stroke="#3C3D41" stroke-width="6" fill="#D1FFFF"></path>
                <path d="M185.50081,69 C177.492368,69 171,62.6930693 171,54.9133662 L171,48 L200,48 L200,54.9133662 C200,62.6930693 193.509253,69 185.50081,69 Z" id="Path" fill="#194451"></path>
                <path d="M156.500811,69 C148.492368,69 142,62.6930693 142,54.9133662 L142,48 L171,48 L171,54.9133662 C171.001621,62.6930693 164.509254,69 156.500811,69 Z" id="Path" fill="#848485"></path>
                <path d="M128.5,69 C120.492005,69 114,62.6930693 114,54.9133662 L114,48 L143,48 L143,54.9133662 C143,62.6930693 136.507995,69 128.5,69 Z" id="Path" fill="#194451"></path>
                <path d="M99.5,69 C91.4920049,69 85,62.6930693 85,54.9133662 L85,48 L114,48 L114,54.9133662 C114,62.6930693 107.507995,69 99.5,69 Z" id="Path" fill="#848485"></path>
                <path d="M71.4991891,69 C63.4907466,69 57,62.6930693 57,54.9133662 L57,48 L86,48 L86,54.9133662 C86,62.6930693 79.5092539,69 71.4991891,69 Z" id="Path" fill="#194451"></path>
                <path d="M42.5008105,69 C34.4923675,69 28,62.6930693 28,54.9133662 L28,48 L57,48 L57,54.9133662 C57,62.6930693 50.5092534,69 42.5008105,69 Z" id="Path" fill="#848485"></path>
                <path d="M14.5,69 C6.49200487,69 0,62.6930693 0,54.9133662 L0,48 L29,48 L29,54.9133662 C29,62.6930693 22.5079947,69 14.5,69 Z" id="Path" fill="#194451"></path>
                <path d="M199,48 L170.443398,48 L159,15 L175.611847,15 C180.122465,15 184.241897,17.5989989 186.234552,21.7039599 L199,48 Z" id="Path" fill="#3C5666"></path>
                <polygon id="Path" fill="#919597" points="171 48 142.783863 48 136 15 159.693036 15"></polygon>
                <polygon id="Path" fill="#3C5666" points="142 48 113.299446 48 111 15 135.100057 15"></polygon>
                <polygon id="Path" fill="#919597" points="114 48 85 48 87.3250589 15 111.676563 15"></polygon>
                <polygon id="Path" fill="#3C5666" points="85.6990681 48 57 48 63.9011904 15 88 15"></polygon>
                <polygon id="Path" fill="#919597" points="57.2148653 48 29 48 40.3064543 15 64 15"></polygon>
                <path d="M28.5570593,48 L0,48 L12.766535,21.7023407 C14.7575142,17.5989989 18.8767814,15 23.3872192,15 L40,15 L28.5570593,48 Z" id="Path" fill="#3C5666"></path>
                <path d="M170.966072,146 L88.033928,146 C86.3590465,146 85,144.634337 85,142.951301 L85,94.0486985 C85,92.3656628 86.3590465,91 88.033928,91 L170.966072,91 C172.642549,91 174,92.3656628 174,94.0486985 L174,142.951301 C174,144.634337 172.642549,146 170.966072,146 Z" id="Path" fill="#344A5D"></path>
                <path d="M170.946362,91 L152,91 L152,146 L170.946362,146 C172.63373,146 174,144.634337 174,142.951301 L174,94.0486985 C174,92.3656628 172.63373,91 170.946362,91 Z" id="Path" fill="#194451"></path>
                <path d="M96,135.341286 L96,102.658714 C96,102.295556 96.2949802,102 96.6609447,102 L163.339055,102 C163.703443,102 164,102.295556 164,102.658714 L164,135.341286 C164,135.704444 163.703443,136 163.339055,136 L96.6609447,136 C96.2949802,136 96,135.704444 96,135.341286 Z" id="Path" fill="#87DBFD"></path>
                <path d="M163.32735,102 L142,102 L142,136 L163.32735,136 C163.69819,136 164,135.704444 164,135.341286 L164,102.660286 C164,102.295556 163.69819,102 163.32735,102 Z" id="Path" fill="#59C2E9"></path>
                <path d="M72,182 L25,182 L25,94.0522694 C25,92.3672623 26.3398468,91 27.9910661,91 L69.0089335,91 C70.6601532,91 72,92.3672623 72,94.0522694 L72,182 Z" id="Path" fill="#3C5666"></path>
                <path d="M68.9465847,91 L50,91 L50,182 L72,182 L72,94.0522694 C72,92.3672623 70.6322242,91 68.9465847,91 Z" id="Path" fill="#194451"></path>
                <path d="M62.0000002,144 C60.3437818,144 59,142.64821 59,140.978711 L59,131.021289 C59,129.35179 60.3437818,128 62.0000002,128 C63.6577352,128 65,129.353317 65,131.021289 L65,140.978711 C65,142.64821 63.6577352,144 62.0000002,144 Z" id="Path" fill="#DBD9D1"></path>
            </g>
            <g id="Group-4" transform="translate(0.000000, 602.000000)" fill-rule="nonzero" stroke-linecap="round" stroke-width="9">
                <g id="Group-2" opacity="0.321010045" transform="translate(0.000000, 5.000000)" stroke="#7FD126">
                    <path d="M141.424276,2 L618,2" id="Line-Copy-2"></path>
                    <path d="M0.525509613,2 L109.557125,2" id="Line-Copy-3"></path>
                </g>
                <g id="Group" stroke="#1F79EE">
                    <path d="M141.424276,1.5 L618,1.5" id="Line"></path>
                    <path d="M0.525509613,1.5 L109.557125,1.5" id="Line-Copy"></path>
                </g>
                <path d="M21.3444816,39.5 L227,39.5" id="Line" stroke="#D2D2D2"></path>
            </g>
            <circle id="Oval" fill-opacity="0.114555027" fill="#9013FE" fill-rule="nonzero" opacity="0.504766555" cx="454" cy="321" r="16"></circle>
            <circle id="Oval-Copy" fill-opacity="0.485139266" fill="#50E3C2" fill-rule="nonzero" opacity="0.504766555" cx="166" cy="407" r="21"></circle>
            <circle id="Oval-Copy-4" fill="#F8E71C" fill-rule="nonzero" opacity="0.504766555" cx="597" cy="510" r="21"></circle>
            <circle id="Oval-Copy-2" fill-opacity="0.158401268" fill="#417505" fill-rule="nonzero" opacity="0.504766555" cx="357" cy="255" r="43"></circle>
            <circle id="Oval-Copy-3" fill-opacity="0.359318388" fill="#8B572A" fill-rule="nonzero" opacity="0.504766555" cx="491" cy="212" r="21"></circle>
        </g>
    </g>
</svg>