<?xml version="1.0" encoding="UTF-8"?>
<svg width="627px" height="350px" viewBox="0 0 627 350" version="1.1" xmlns="http://www.w3.org/2000/svg" xmlns:xlink="http://www.w3.org/1999/xlink">
    <!-- Generator: Sketch 52.6 (67491) - http://www.bohemiancoding.com/sketch -->
    <title>Group 5 Copy</title>
    <desc>Created with Sketch.</desc>
    <g id="Page-1" stroke="none" stroke-width="1" fill="none" fill-rule="evenodd">
        <g id="Group-5-Copy" transform="translate(4.000000, 0.000000)">
            <g id="box" transform="translate(269.000000, 134.000000)">
                <polygon id="Path" fill="#D1FFFF" points="81.5 30 2 30 2 161 161 161 161 30"></polygon>
                <g id="Group">
                    <path d="M163.809147,29.1177408 C163.77845,29.0389976 163.746419,28.9682616 163.710384,28.890853 C163.681022,28.8121094 163.647656,28.7347004 163.608952,28.6586262 L147.208952,1.32529288 C146.715137,0.503157467 145.82627,4.4408921e-16 144.866667,4.4408921e-16 L19.1333333,4.4408921e-16 C18.1737304,4.4408921e-16 17.2848634,0.503157467 16.7910481,1.32529288 L0.391048092,28.6586262 C0.35234375,28.7347004 0.31897795,28.8121094 0.2896158,28.890853 C0.2535809,28.9682616 0.22154965,29.0416667 0.19085295,29.1204102 C0.0707355917,29.4220377 0.00667316,29.7423502 -5.6177285e-14,30.0666667 L-5.6177285e-14,161.266667 C-5.6177285e-14,162.776139 1.22386059,164 2.73333333,164 L161.266667,164 C162.776139,164 164,162.776139 164,161.266667 L164,30.0666667 C163.993327,29.7410156 163.929264,29.4207031 163.809147,29.1177408 Z M156.43929,27.3333333 L84.7333333,27.3333333 L84.7333333,5.46666667 L143.319824,5.46666667 L156.43929,27.3333333 Z M20.6801759,5.46666667 L79.2666667,5.46666667 L79.2666667,27.3333333 L7.56070955,27.3333333 L20.6801759,5.46666667 Z M158.533333,158.533333 L5.46666667,158.533333 L5.46666667,32.8 L158.533333,32.8 L158.533333,158.533333 Z" id="Shape" fill="#4E4C4F" fill-rule="nonzero"></path>
                    <path d="M57.4,43.7333333 C57.4,45.2428061 58.6238606,46.4666667 60.1333333,46.4666667 L103.866667,46.4666667 C105.376139,46.4666667 106.6,45.2428061 106.6,43.7333333 C106.6,42.2238606 105.376139,41 103.866667,41 L60.1333333,41 C58.6238606,41 57.4,42.2238606 57.4,43.7333333 Z" id="Path" fill="#1E81CE"></path>
                    <path d="M102.177018,79.4775392 C101.157357,79.0544595 99.9828774,79.2880208 99.2007812,80.0674479 L87.6027996,91.6654295 C86.5671226,92.7371418 86.5818033,94.4428061 87.6361654,95.4971679 C88.6905273,96.55153 90.3961915,96.5662108 91.4679038,95.5305337 L98.4,88.5984375 L98.4,123 L65.6,123 L65.6,88.5984375 L72.5320962,95.5305337 C73.218099,96.2405601 74.2337564,96.5261719 75.1893554,96.2752604 C76.1449543,96.0256835 76.8923502,95.2782877 77.1419271,94.3226887 C77.3928385,93.3670898 77.1072267,92.3514323 76.3972003,91.6654295 L64.7992187,80.0674479 C63.7315104,79.0010741 62.0018229,79.0010741 60.9341146,80.0674479 L49.336133,91.6654295 C48.6261066,92.3514323 48.3404948,93.3670898 48.5914062,94.3226887 C48.8409832,95.2782877 49.588379,96.0256835 50.5439779,96.2752604 C51.4995769,96.5261719 52.5152344,96.2405601 53.2012371,95.5305337 L60.1333333,88.5984375 L60.1333333,123 L41,123 C39.4905273,123 38.2666667,124.223861 38.2666667,125.733333 C38.2666667,127.242806 39.4905273,128.466667 41,128.466667 L123,128.466667 C124.509473,128.466667 125.733333,127.242806 125.733333,125.733333 C125.733333,124.223861 124.509473,123 123,123 L103.866667,123 L103.866667,88.5984375 L110.798763,95.5305337 C111.870475,96.5662108 113.576139,96.55153 114.630501,95.4971679 C115.684863,94.4428061 115.699544,92.7371418 114.663867,91.6654295 L103.065885,80.0674479 C102.81097,79.813867 102.509343,79.6136719 102.177018,79.4775392 Z" id="Path" fill="#3C3D41"></path>
                </g>
            </g>
            <g id="box-copy" opacity="0.164620536" transform="translate(181.000000, 92.000000) rotate(-29.000000) translate(-181.000000, -92.000000) translate(139.000000, 50.000000)">
                <polygon id="Path" fill="#D1FFFF" points="41.5 15 1 15 1 82 82 82 82 15"></polygon>
                <g id="Group">
                    <path d="M83.9022461,14.9139648 C83.8865234,14.8736329 83.8701171,14.8374023 83.8516602,14.797754 C83.8366211,14.7574219 83.8195313,14.7177734 83.7997071,14.6788086 L75.3997071,0.67880855 C75.1467773,0.2577148 74.691504,4.4408921e-16 74.2,4.4408921e-16 L9.8,4.4408921e-16 C9.30849605,4.4408921e-16 8.8532227,0.2577148 8.60029292,0.67880855 L0.200292925,14.6788086 C0.18046875,14.7177734 0.16337895,14.7574219 0.1483398,14.797754 C0.1298829,14.8374023 0.11347665,14.875 0.09775395,14.9153321 C0.036230425,15.0698242 0.00341796,15.2338867 -5.6177285e-14,15.4 L-5.6177285e-14,82.6 C-5.6177285e-14,83.3731446 0.626855425,84 1.4,84 L82.6,84 C83.3731446,84 84,83.3731446 84,82.6 L84,15.4 C83.9965821,15.2332031 83.9637696,15.0691406 83.9022461,14.9139648 Z M80.1274415,14 L43.4,14 L43.4,2.8 L73.4077148,2.8 L80.1274415,14 Z M10.5922852,2.8 L40.6,2.8 L40.6,14 L3.87255855,14 L10.5922852,2.8 Z M81.2,81.2 L2.8,81.2 L2.8,16.8 L81.2,16.8 L81.2,81.2 Z" id="Shape" fill="#4E4C4F" fill-rule="nonzero"></path>
                    <path d="M29.4,22.4 C29.4,23.1731446 30.0268554,23.8 30.8,23.8 L53.2,23.8 C53.9731446,23.8 54.6,23.1731446 54.6,22.4 C54.6,21.6268554 53.9731446,21 53.2,21 L30.8,21 C30.0268554,21 29.4,21.6268554 29.4,22.4 Z" id="Path" fill="#1E81CE"></path>
                    <path d="M52.3345704,40.7080079 C51.8123046,40.4913085 51.2107421,40.6109375 50.8101562,41.0101562 L44.8697266,46.9505858 C44.3392579,47.4995117 44.3467773,48.3731446 44.8868164,48.9131835 C45.4268554,49.4532227 46.3004883,49.4607421 46.8494141,48.9302733 L50.4,45.3796875 L50.4,63 L33.6,63 L33.6,45.3796875 L37.1505858,48.9302733 C37.5019531,49.2939454 38.0221679,49.4402344 38.511621,49.3117187 C39.0010742,49.1838867 39.3838867,48.8010742 39.5117187,48.311621 C39.6402344,47.8221679 39.4939454,47.3019531 39.1302733,46.9505858 L33.1898437,41.0101562 C32.6429687,40.4639648 31.7570312,40.4639648 31.2101562,41.0101562 L25.2697266,46.9505858 C24.9060546,47.3019531 24.7597656,47.8221679 24.8882812,48.311621 C25.0161133,48.8010742 25.3989258,49.1838867 25.8883789,49.3117187 C26.3778321,49.4402344 26.8980469,49.2939454 27.2494141,48.9302733 L30.8,45.3796875 L30.8,63 L21,63 C20.2268554,63 19.6,63.6268554 19.6,64.4 C19.6,65.1731446 20.2268554,65.8 21,65.8 L63,65.8 C63.7731446,65.8 64.4,65.1731446 64.4,64.4 C64.4,63.6268554 63.7731446,63 63,63 L53.2,63 L53.2,45.3796875 L56.7505858,48.9302733 C57.2995117,49.4607421 58.1731446,49.4532227 58.7131835,48.9131835 C59.2532227,48.3731446 59.2607421,47.4995117 58.7302733,46.9505858 L52.7898437,41.0101562 C52.6592773,40.8802733 52.5047852,40.7777344 52.3345704,40.7080079 Z" id="Path" fill="#3C3D41"></path>
                </g>
            </g>
            <g id="box-copy-3" opacity="0.164620536" transform="translate(548.000000, 258.000000) rotate(16.000000) translate(-548.000000, -258.000000) translate(506.000000, 216.000000)">
                <polygon id="Path" fill="#D1FFFF" points="41.5 15 1 15 1 82 82 82 82 15"></polygon>
                <g id="Group">
                    <path d="M83.9022461,14.9139648 C83.8865234,14.8736329 83.8701171,14.8374023 83.8516602,14.797754 C83.8366211,14.7574219 83.8195313,14.7177734 83.7997071,14.6788086 L75.3997071,0.67880855 C75.1467773,0.2577148 74.691504,4.4408921e-16 74.2,4.4408921e-16 L9.8,4.4408921e-16 C9.30849605,4.4408921e-16 8.8532227,0.2577148 8.60029292,0.67880855 L0.200292925,14.6788086 C0.18046875,14.7177734 0.16337895,14.7574219 0.1483398,14.797754 C0.1298829,14.8374023 0.11347665,14.875 0.09775395,14.9153321 C0.036230425,15.0698242 0.00341796,15.2338867 -5.6177285e-14,15.4 L-5.6177285e-14,82.6 C-5.6177285e-14,83.3731446 0.626855425,84 1.4,84 L82.6,84 C83.3731446,84 84,83.3731446 84,82.6 L84,15.4 C83.9965821,15.2332031 83.9637696,15.0691406 83.9022461,14.9139648 Z M80.1274415,14 L43.4,14 L43.4,2.8 L73.4077148,2.8 L80.1274415,14 Z M10.5922852,2.8 L40.6,2.8 L40.6,14 L3.87255855,14 L10.5922852,2.8 Z M81.2,81.2 L2.8,81.2 L2.8,16.8 L81.2,16.8 L81.2,81.2 Z" id="Shape" fill="#4E4C4F" fill-rule="nonzero"></path>
                    <path d="M29.4,22.4 C29.4,23.1731446 30.0268554,23.8 30.8,23.8 L53.2,23.8 C53.9731446,23.8 54.6,23.1731446 54.6,22.4 C54.6,21.6268554 53.9731446,21 53.2,21 L30.8,21 C30.0268554,21 29.4,21.6268554 29.4,22.4 Z" id="Path" fill="#1E81CE"></path>
                    <path d="M52.3345704,40.7080079 C51.8123046,40.4913085 51.2107421,40.6109375 50.8101562,41.0101562 L44.8697266,46.9505858 C44.3392579,47.4995117 44.3467773,48.3731446 44.8868164,48.9131835 C45.4268554,49.4532227 46.3004883,49.4607421 46.8494141,48.9302733 L50.4,45.3796875 L50.4,63 L33.6,63 L33.6,45.3796875 L37.1505858,48.9302733 C37.5019531,49.2939454 38.0221679,49.4402344 38.511621,49.3117187 C39.0010742,49.1838867 39.3838867,48.8010742 39.5117187,48.311621 C39.6402344,47.8221679 39.4939454,47.3019531 39.1302733,46.9505858 L33.1898437,41.0101562 C32.6429687,40.4639648 31.7570312,40.4639648 31.2101562,41.0101562 L25.2697266,46.9505858 C24.9060546,47.3019531 24.7597656,47.8221679 24.8882812,48.311621 C25.0161133,48.8010742 25.3989258,49.1838867 25.8883789,49.3117187 C26.3778321,49.4402344 26.8980469,49.2939454 27.2494141,48.9302733 L30.8,45.3796875 L30.8,63 L21,63 C20.2268554,63 19.6,63.6268554 19.6,64.4 C19.6,65.1731446 20.2268554,65.8 21,65.8 L63,65.8 C63.7731446,65.8 64.4,65.1731446 64.4,64.4 C64.4,63.6268554 63.7731446,63 63,63 L53.2,63 L53.2,45.3796875 L56.7505858,48.9302733 C57.2995117,49.4607421 58.1731446,49.4532227 58.7131835,48.9131835 C59.2532227,48.3731446 59.2607421,47.4995117 58.7302733,46.9505858 L52.7898437,41.0101562 C52.6592773,40.8802733 52.5047852,40.7777344 52.3345704,40.7080079 Z" id="Path" fill="#3C3D41"></path>
                </g>
            </g>
            <g id="box-copy-2" opacity="0.164620536" transform="translate(351.000000, 0.000000)">
                <polygon id="Path" fill="#D1FFFF" points="35 13 1 13 1 69 69 69 69 13"></polygon>
                <g id="Group">
                    <path d="M70.9173746,12.6058512 C70.9040852,12.5717611 70.890218,12.5411377 70.8746176,12.5076254 C70.8619059,12.4735352 70.8474609,12.4400227 70.8307048,12.4070882 L63.7307048,0.573754846 C63.5169189,0.217830367 63.1321045,4.4408921e-16 62.7166667,4.4408921e-16 L8.28333333,4.4408921e-16 C7.86789547,4.4408921e-16 7.48308109,0.217830367 7.26929521,0.573754846 L0.16929521,12.4070882 C0.152539062,12.4400227 0.138094112,12.4735352 0.12538245,12.5076254 C0.109781975,12.5411377 0.0959147875,12.5729167 0.0826253625,12.6070069 C0.0306233354,12.7375895 0.00288899,12.8762614 -5.6177285e-14,13.0166667 L-5.6177285e-14,69.8166667 C-5.6177285e-14,70.4701579 0.529842085,71 1.18333333,71 L69.8166667,71 C70.4701579,71 71,70.4701579 71,69.8166667 L71,13.0166667 C70.997111,12.8756836 70.9693767,12.7370117 70.9173746,12.6058512 Z M67.726766,11.8333333 L36.6833333,11.8333333 L36.6833333,2.36666667 L62.046997,2.36666667 L67.726766,11.8333333 Z M8.95300297,2.36666667 L34.3166667,2.36666667 L34.3166667,11.8333333 L3.27323401,11.8333333 L8.95300297,2.36666667 Z M68.6333333,68.6333333 L2.36666667,68.6333333 L2.36666667,14.2 L68.6333333,14.2 L68.6333333,68.6333333 Z" id="Shape" fill="#4E4C4F" fill-rule="nonzero"></path>
                    <path d="M24.85,18.9333333 C24.85,19.5868246 25.3798421,20.1166667 26.0333333,20.1166667 L44.9666667,20.1166667 C45.6201579,20.1166667 46.15,19.5868246 46.15,18.9333333 C46.15,18.2798421 45.6201579,17.75 44.9666667,17.75 L26.0333333,17.75 C25.3798421,17.75 24.85,18.2798421 24.85,18.9333333 Z" id="Path" fill="#1E81CE"></path>
                    <path d="M44.2351726,34.4079591 C43.7937336,34.2247965 43.2852701,34.3259115 42.9466797,34.6633464 L37.9256023,39.6844238 C37.4772299,40.1483968 37.4835856,40.8868246 37.9400472,41.3432861 C38.3965088,41.7997478 39.1349366,41.8061034 39.5989096,41.357731 L42.6,38.3566406 L42.6,53.25 L28.4,53.25 L28.4,38.3566406 L31.4010904,41.357731 C31.6980794,41.6651205 32.1377848,41.7887695 32.5514892,41.6801432 C32.9651936,41.5720947 33.2887614,41.248527 33.3968099,40.8348226 C33.5054362,40.4211181 33.3817872,39.9814128 33.0743977,39.6844238 L28.0533203,34.6633464 C27.5910807,34.2016845 26.8422526,34.2016845 26.380013,34.6633464 L21.3589356,39.6844238 C21.0515461,39.9814128 20.9278971,40.4211181 21.0365234,40.8348226 C21.144572,41.248527 21.4681397,41.5720947 21.8818441,41.6801432 C22.2955485,41.7887695 22.7352539,41.6651205 23.0322429,41.357731 L26.0333333,38.3566406 L26.0333333,53.25 L17.75,53.25 C17.0965088,53.25 16.5666667,53.7798421 16.5666667,54.4333333 C16.5666667,55.0868246 17.0965088,55.6166667 17.75,55.6166667 L53.25,55.6166667 C53.9034912,55.6166667 54.4333333,55.0868246 54.4333333,54.4333333 C54.4333333,53.7798421 53.9034912,53.25 53.25,53.25 L44.9666667,53.25 L44.9666667,38.3566406 L47.9677571,41.357731 C48.4317301,41.8061034 49.1701579,41.7997478 49.6266194,41.3432861 C50.0830811,40.8868246 50.0894368,40.1483968 49.6410644,39.6844238 L44.619987,34.6633464 C44.5096272,34.5535644 44.3790446,34.4668945 44.2351726,34.4079591 Z" id="Path" fill="#3C3D41"></path>
                </g>
            </g>
            <g id="Group-4" transform="translate(0.000000, 338.000000)" fill-rule="nonzero" stroke-linecap="round" stroke-width="9">
                <g id="Group-2" opacity="0.321010045" transform="translate(0.000000, 5.000000)" stroke="#7FD126">
                    <path d="M141.424276,2 L618,2" id="Line-Copy-2"></path>
                    <path d="M0.525509613,2 L109.557125,2" id="Line-Copy-3"></path>
                </g>
                <g id="Group" stroke="#1F79EE">
                    <path d="M141.424276,1.5 L618,1.5" id="Line"></path>
                    <path d="M0.525509613,1.5 L109.557125,1.5" id="Line-Copy"></path>
                </g>
            </g>
        </g>
    </g>
</svg>