<?xml version="1.0" encoding="UTF-8"?>
<svg width="686px" height="646px" viewBox="0 0 686 646" version="1.1" xmlns="http://www.w3.org/2000/svg" xmlns:xlink="http://www.w3.org/1999/xlink">
    <!-- Generator: Sketch 52.6 (67491) - http://www.bohemiancoding.com/sketch -->
    <title>Group 5</title>
    <desc>Created with Sketch.</desc>
    <g id="Page-1" stroke="none" stroke-width="1" fill="none" fill-rule="evenodd">
        <g id="Group-5" transform="translate(4.000000, 0.000000)">
            <circle id="Oval" fill="#EEF6FF" fill-rule="nonzero" opacity="0.627511161" cx="361" cy="321" r="321"></circle>
            <g id="Group-3" transform="translate(269.000000, 398.000000)">
                <path d="M210.678208,127 L74.0604538,127 C67.4082306,127 61.7759576,122.10867 60.8652879,115.540215 L48.03439,23.0251025 C47.7377719,20.8984373 49.3977924,19 51.5521758,19 L224,19 L224,113.721311 C224,121.055712 218.036416,127 210.678208,127 Z" id="Path" fill="#D1FFFF" transform="translate(136.000000, 73.000000) scale(-1, 1) translate(-136.000000, -73.000000) "></path>
                <path d="M48,10.6500075 C48,14.3230975 45.0454686,17.3000151 41.4,17.3000151 L20.72,17.3000151 C18.7760936,17.3000151 17.2,18.8880511 17.2,20.8466858 L17.2,153 L4,153 L4,17.3000151 C4,9.95556677 9.90906272,4 17.2,4 L41.4,4 C45.0454686,4 48,6.97864921 48,10.6500075 Z" id="Path" fill="#D1FFFF" transform="translate(26.000000, 78.500000) scale(-1, 1) translate(-26.000000, -78.500000) "></path>
                <path d="M216.036564,167.584832 L195.364319,146.958826 C194.10786,145.703436 192.402915,145 190.626421,145 L36.0505207,145 C34.2740272,145 32.5690814,145.703436 31.3126222,146.958826 L10.9632176,167.262713 C8.34559414,169.87274 8.34559414,174.107288 10.9632176,176.717315 C13.5790961,179.329083 17.8231362,179.329083 20.4390147,176.717315 L38.8269468,158.372254 L187.849995,158.372254 L206.560767,177.041174 C207.869579,178.347058 209.584995,179 211.300411,179 C213.014082,179 214.729498,178.347058 216.038309,177.041174 C218.654188,174.429406 218.654188,170.196599 216.036564,167.584832 Z" id="Path" fill="#D1FFFF" transform="translate(113.500000, 162.000000) scale(-1, 1) translate(-113.500000, -162.000000) "></path>
                <path d="M225,171.5 C225,178.95664 218.95664,185 211.5,185 C204.04336,185 198,178.95664 198,171.5 C198,164.04336 204.04336,158 211.5,158 C218.95664,158 225,164.04336 225,171.5 Z" id="Path" fill="#FFFFFF" transform="translate(211.500000, 171.500000) scale(-1, 1) translate(-211.500000, -171.500000) "></path>
                <path d="M30,171.5 C30,178.95664 23.9566404,185 16.5,185 C9.0433596,185 3,178.95664 3,171.5 C3,164.04336 9.0433596,158 16.5,158 C23.9566404,158 30,164.04336 30,171.5 Z" id="Path" fill="#FFFFFF" transform="translate(16.500000, 171.500000) scale(-1, 1) translate(-16.500000, -171.500000) "></path>
                <path d="M211.300781,154.713083 C210.514526,154.713083 209.742187,154.772028 208.983765,154.87605 L198.148407,144.076873 C197.736145,143.667721 197.292572,143.307113 196.828125,142.979445 L196.828125,131.079372 C196.828125,129.239923 195.333893,127.75068 193.488281,127.75068 C191.64267,127.75068 190.148437,129.239923 190.148437,131.079372 L190.148437,141.153865 L183.46875,141.153865 L183.46875,16.6434585 C183.46875,11.1372477 187.963623,6.65738341 193.488281,6.65738341 L217.980469,6.65738341 C219.822601,6.65738341 221.320312,8.15009393 221.320312,9.98607511 C221.320312,11.8220567 219.822601,13.3147668 217.980469,13.3147668 L197.050781,13.3147668 C193.244751,13.3147668 190.148437,16.4007414 190.148437,20.194063 L190.148437,116.932432 C190.148437,118.771881 191.64267,120.261124 193.488281,120.261124 C195.333893,120.261124 196.828125,118.771881 196.828125,116.932432 L196.828125,20.194063 C196.828125,20.0727047 196.929016,19.9721502 197.050781,19.9721502 L217.980469,19.9721502 C223.505127,19.9721502 228,15.492286 228,9.98607511 C228,4.47986425 223.505127,0 217.980469,0 L193.488281,0 C184.921234,0 177.84494,6.46320973 176.900391,14.7537327 L173.249176,14.7537327 L13.5333252,14.7537327 L7.19458008,14.7537327 C5.19937123,14.7537327 3.30157448,15.6136448 1.99172962,17.1150232 C0.680145375,18.614668 0.0852354844,20.6049487 0.358337625,22.5761582 L13.2254335,115.340901 C14.3595887,123.529136 21.4724121,129.704553 29.7663574,129.704553 L166.769531,129.704553 C170.526855,129.704553 173.995422,128.461494 176.789062,126.367192 L176.789062,141.153865 L56.8521424,141.153865 C55.006531,141.153865 53.5122987,142.644842 53.5122987,144.482557 C53.5122987,146.322006 55.006531,147.811249 56.8521424,147.811249 L191.065155,147.811249 C191.908813,147.811249 192.771606,148.13545 193.42392,148.785584 L202.128388,157.459254 C200.253204,158.69191 198.640686,160.292109 197.395203,162.155829 L190.656372,155.442968 C190.030151,154.818838 189.181274,154.468632 188.295868,154.468632 L39.752838,154.468632 C38.8674316,154.468632 38.0168153,154.818838 37.392334,155.442968 L30.6256716,162.187036 C29.383667,160.319848 27.7746278,158.716181 25.9029237,157.478324 L34.6247863,148.785584 C35.2544862,148.157988 36.0911865,147.811249 36.9835509,147.811249 L42.6004026,147.811249 C44.4460145,147.811249 45.9402464,146.322006 45.9402464,144.482557 C45.9402464,142.644842 44.4460145,141.153865 42.6004026,141.153865 L36.9835509,141.153865 C34.3081971,141.153865 31.7928771,142.192348 29.9020388,144.076873 L19.0597228,154.882985 C18.2873839,154.773762 17.501129,154.713083 16.6992187,154.713083 C7.49029519,154.713083 0,162.178367 0,171.356541 C0,180.534716 7.49029519,188 16.6992187,188 C25.9081423,188 33.3984375,180.534716 33.3984375,171.356541 C33.3984375,170.559042 33.3375548,169.775413 33.2297059,169.007387 L41.1374816,161.126016 L186.912964,161.126016 L194.777252,168.960577 C194.664185,169.744207 194.601562,170.543439 194.601562,171.356541 C194.601562,180.534716 202.093598,188 211.300781,188 C220.509705,188 228,180.534716 228,171.356541 C228,162.180101 220.509705,154.713083 211.300781,154.713083 Z M29.7663574,123.04717 C24.7896424,123.04717 20.5226443,119.342266 19.8407595,114.428979 L6.97366322,21.6642352 C6.97018444,21.6364961 6.96148659,21.5636812 7.02758789,21.4873987 C7.09368919,21.4111161 7.16848744,21.4111161 7.19458008,21.4111161 L42.6769411,21.4111161 C44.5208128,21.4111161 46.0167849,19.9218732 46.0167849,18.0824244 C46.0167849,16.2447092 44.5208128,14.7537327 42.6769411,14.7537327 L41.0748595,14.7537327 L95.5473633,14.7537327 L57.0747987,14.7537327 C55.2291872,14.7537327 53.7349549,16.2447092 53.7349549,18.0824244 C53.7349549,19.9218732 55.2291872,21.4111161 57.0747987,21.4111161 L176.789063,21.4111161 L176.789063,113.061094 C176.789063,118.567305 172.294189,123.04717 166.769531,123.04717 L29.7663574,123.04717 Z M16.6992188,181.342617 C11.1745605,181.342617 6.6796875,176.862752 6.6796875,171.356541 C6.6796875,165.850331 11.1745605,161.370466 16.6992188,161.370466 C22.1751709,161.370466 26.71875,165.806988 26.71875,171.356541 C26.71875,176.862752 22.223877,181.342617 16.6992188,181.342617 Z M211.300781,181.342617 C205.776123,181.342617 201.28125,176.862752 201.28125,171.356541 C201.28125,165.876336 205.755249,161.370466 211.300781,161.370466 C216.825439,161.370466 221.320313,165.850331 221.320313,171.356541 C221.320313,176.862752 216.825439,181.342617 211.300781,181.342617 Z" id="Shape" fill="#3C3D41" fill-rule="nonzero" transform="translate(114.000000, 94.000000) scale(-1, 1) translate(-114.000000, -94.000000) "></path>
                <path d="M193.5,36 C191.567708,36 190,37.4845408 190,39.3181818 L190,105.681818 C190,107.515459 191.567708,109 193.5,109 C195.432292,109 197,107.515459 197,105.681818 L197,39.3181818 C197,37.4845408 195.432292,36 193.5,36 Z" id="Path" fill="#3C3D41" transform="translate(193.500000, 72.500000) scale(-1, 1) translate(-193.500000, -72.500000) "></path>
                <path d="M172.5,36 C170.567708,36 169,37.4845408 169,39.3181818 L169,105.681818 C169,107.515459 170.567708,109 172.5,109 C174.432292,109 176,107.515459 176,105.681818 L176,39.3181818 C176,37.4845408 174.432292,36 172.5,36 Z" id="Path" fill="#3C3D41" transform="translate(172.500000, 72.500000) scale(-1, 1) translate(-172.500000, -72.500000) "></path>
                <path d="M152.5,36 C150.567708,36 149,37.4845408 149,39.3181818 L149,105.681818 C149,107.515459 150.567708,109 152.5,109 C154.432292,109 156,107.515459 156,105.681818 L156,39.3181818 C156,37.4845408 154.432292,36 152.5,36 Z" id="Path" fill="#3C3D41" transform="translate(152.500000, 72.500000) scale(-1, 1) translate(-152.500000, -72.500000) "></path>
                <path d="M131.5,36 C129.567708,36 128,37.4845408 128,39.3181818 L128,105.681818 C128,107.515459 129.567708,109 131.5,109 C133.432292,109 135,107.515459 135,105.681818 L135,39.3181818 C135,37.4845408 133.432292,36 131.5,36 Z" id="Path" fill="#3C3D41" transform="translate(131.500000, 72.500000) scale(-1, 1) translate(-131.500000, -72.500000) "></path>
                <path d="M111.5,36 C109.565886,36 108,37.4845408 108,39.3181818 L108,105.681818 C108,107.515459 109.565886,109 111.5,109 C113.434114,109 115,107.515459 115,105.681818 L115,39.3181818 C115,37.4845408 113.434114,36 111.5,36 Z" id="Path" fill="#3C3D41" transform="translate(111.500000, 72.500000) scale(-1, 1) translate(-111.500000, -72.500000) "></path>
                <path d="M90.5,36 C88.5658855,36 87,37.4845408 87,39.3181818 L87,105.681818 C87,107.515459 88.5658855,109 90.5,109 C92.4341145,109 94,107.515459 94,105.681818 L94,39.3181818 C94,37.4845408 92.4341145,36 90.5,36 Z" id="Path" fill="#3C3D41" transform="translate(90.500000, 72.500000) scale(-1, 1) translate(-90.500000, -72.500000) "></path>
                <path d="M70.5,36 C68.5658855,36 67,37.4845408 67,39.3181818 L67,105.681818 C67,107.515459 68.5658855,109 70.5,109 C72.4341145,109 74,107.515459 74,105.681818 L74,39.3181818 C74,37.4845408 72.4341145,36 70.5,36 Z" id="Path" fill="#3C3D41" transform="translate(70.500000, 72.500000) scale(-1, 1) translate(-70.500000, -72.500000) "></path>
            </g>
            <g id="Group-4" transform="translate(0.000000, 602.000000)" fill-rule="nonzero" stroke-linecap="round" stroke-width="9">
                <g id="Group-2" opacity="0.321010045" transform="translate(0.000000, 5.000000)" stroke="#7FD126">
                    <path d="M141.424276,2 L618,2" id="Line-Copy-2"></path>
                    <path d="M0.525509613,2 L109.557125,2" id="Line-Copy-3"></path>
                </g>
                <g id="Group" stroke="#1F79EE">
                    <path d="M141.424276,1.5 L618,1.5" id="Line"></path>
                    <path d="M0.525509613,1.5 L109.557125,1.5" id="Line-Copy"></path>
                </g>
                <path d="M21.3444816,39.5 L227,39.5" id="Line" stroke="#D2D2D2"></path>
            </g>
            <circle id="Oval" fill-opacity="0.114555027" fill="#9013FE" fill-rule="nonzero" opacity="0.504766555" cx="454" cy="321" r="16"></circle>
            <circle id="Oval-Copy" fill-opacity="0.485139266" fill="#50E3C2" fill-rule="nonzero" opacity="0.504766555" cx="166" cy="407" r="21"></circle>
            <circle id="Oval-Copy-4" fill="#F8E71C" fill-rule="nonzero" opacity="0.504766555" cx="597" cy="510" r="21"></circle>
            <circle id="Oval-Copy-2" fill-opacity="0.158401268" fill="#417505" fill-rule="nonzero" opacity="0.504766555" cx="357" cy="255" r="43"></circle>
            <circle id="Oval-Copy-3" fill-opacity="0.359318388" fill="#8B572A" fill-rule="nonzero" opacity="0.504766555" cx="491" cy="212" r="21"></circle>
        </g>
    </g>
</svg>